<svg xmlns="http://www.w3.org/2000/svg" viewBox="0 0 800 800" role="img" aria-labelledby="title desc">
  <title id="title">微信二维码占位图</title>
  <desc id="desc">不可扫描的二维码风格占位图，正式上线前需要替换。</desc>
  <rect width="800" height="800" fill="#fff"/>
  <g fill="#12372f">
    <path d="M70 70h210v210H70zM105 105v140h140V105zM140 140h70v70h-70z" fill-rule="evenodd"/>
    <path d="M520 70h210v210H520zM555 105v140h140V105zM590 140h70v70h-70z" fill-rule="evenodd"/>
    <path d="M70 520h210v210H70zM105 555v140h140V555zM140 590h70v70h-70z" fill-rule="evenodd"/>
    <path d="M335 70h55v55h-55zM410 70h35v80h-35zM465 95h35v35h-35zM330 155h45v45h-45zM400 175h80v35h-80zM315 235h55v55h-55zM400 235h35v70h-35zM460 225h45v45h-45z"/>
    <path d="M315 520h50v50h-50zM390 500h45v80h-45zM455 535h35v35h-35zM325 600h35v95h-35zM390 620h70v35h-70zM480 590h45v105h-45zM550 320h55v55h-55zM625 320h90v35h-90zM535 400h35v80h-35zM590 410h55v55h-55zM675 390h40v95h-40z"/>
    <path d="M70 330h35v120H70zM125 330h75v35h-75zM220 315h55v55h-55zM120 400h45v80h-45zM190 415h90v35h-90zM315 330h45v45h-45zM440 315h45v55h-45zM325 440h55v45h-55zM425 430h65v55h-65z"/>
  </g>
  <rect x="250" y="302" width="300" height="196" rx="26" fill="#fff" stroke="#d7c18d" stroke-width="6"/>
  <circle cx="400" cy="370" r="35" fill="#d7c18d"/>
  <text x="400" y="382" text-anchor="middle" fill="#12372f" font-family="Georgia,serif" font-size="31" font-weight="700">QR</text>
  <text x="400" y="447" text-anchor="middle" fill="#12372f" font-family="Microsoft YaHei,sans-serif" font-size="28" font-weight="700" letter-spacing="5">二维码待替换</text>
  <text x="400" y="478" text-anchor="middle" fill="#7b8580" font-family="Microsoft YaHei,sans-serif" font-size="15">此图不可扫描</text>
</svg>
